<svg xmlns="http://www.w3.org/2000/svg" viewBox="0 0 163.94 238.27"><defs><style>.cls-1{fill:#f97316;}</style></defs><title>Asset 4</title><g id="Layer_2" data-name="Layer 2"><g id="Layer_1-2" data-name="Layer 1"><path class="cls-1" d="M153.27,36.29a71.81,71.81,0,0,0-29.05-26.9Q105.56-.32,80.56,0q-23,.3-41.71,9.63C26.38,15.87,16.77,25,8.94,36.31c-23.47,33.87,6.71,88.76,6.71,88.76S18.89,105.24,21.2,99A59.05,59.05,0,0,1,34.93,77.81c-6.18-13.92-1.14-24.07,3.6-31.05S50.19,35.83,57.34,32.52s16.19-4.21,24-4.31a52,52,0,0,1,24.08,5.69c7.33,3.6,13.16,9.66,17.61,16.42s6.72,14.78,6.84,24.06a52,52,0,0,1-3.64,20.5,53.72,53.72,0,0,1-10.37,16.4,73.21,73.21,0,0,1-14.9,12.34,124,124,0,0,0-23.62,18.63q-9.83,10.08-15,26.19a111.36,111.36,0,0,0-4.46,24.82c-.59.51-1.17,1.05-1.73,1.63a25.57,25.57,0,0,0,18.6,43.38,24.46,24.46,0,0,0,12.81-3.65,26.78,26.78,0,0,0,9.11-9.42,25.34,25.34,0,0,0-4.42-30.75,86,86,0,0,1,2.37-12.65,52.8,52.8,0,0,1,10.67-20.52,89.35,89.35,0,0,1,19.82-16.66,95.44,95.44,0,0,0,21.15-17.89A71.53,71.53,0,0,0,159.54,104a79.7,79.7,0,0,0,4.39-28.33Q163.65,53.49,153.27,36.29Zm-78.89,192a14.5,14.5,0,1,1,14.31-14.68A14.5,14.5,0,0,1,74.38,228.31Z"/></g></g></svg>